<svg width="159" height="152" viewBox="0 0 159 152" fill="none" xmlns="http://www.w3.org/2000/svg">
<ellipse cx="79.5" cy="76" rx="79.5" ry="76" fill="url(#paint0_linear_2_37)"/>
<path d="M48.6124 62L56.3244 51.888L56.2284 54.64L48.8364 44.784H54.4364L59.1084 51.216L56.9964 51.28L61.8284 44.784H67.1404L59.7164 54.544V51.856L67.3964 62H61.7324L56.8364 55.152L58.9164 55.44L54.0524 62H48.6124Z" fill="white"/>
<path d="M89.9175 68.464C89.0215 68.464 88.1362 68.3253 87.2615 68.048C86.3868 67.7707 85.6722 67.3867 85.1175 66.896L86.9415 63.344C87.3255 63.6853 87.7628 63.952 88.2535 64.144C88.7655 64.336 89.2668 64.432 89.7575 64.432C90.4615 64.432 91.0162 64.2613 91.4215 63.92C91.8482 63.6 92.2322 63.056 92.5735 62.288L93.4695 60.176L93.8535 59.632L100.03 44.784H104.83L97.0535 63.056C96.4988 64.4427 95.8588 65.5307 95.1335 66.32C94.4295 67.1093 93.6402 67.664 92.7655 67.984C91.9122 68.304 90.9628 68.464 89.9175 68.464ZM92.8615 62.672L85.1815 44.784H90.3335L96.2855 59.184L92.8615 62.672Z" fill="white"/>
<path d="M50.4325 107V103.992L60.6085 91.96L61.4725 93.624H50.6565V89.784H65.5045V92.792L55.3285 104.824L54.4325 103.16H65.7925V107H50.4325Z" fill="white"/>
<path d="M86.2556 106L80.0476 88.784H84.7516L89.9036 103.6H87.6636L93.0396 88.784H97.2636L102.48 103.6H100.24L105.552 88.784H109.968L103.728 106H98.8956L94.3196 93.296H95.7916L91.0556 106H86.2556Z" fill="white"/>
<mask id="path-6-inside-1_2_37" fill="white">
<path d="M37 37C37 34.7909 38.7909 33 41 33H118C120.209 33 122 34.7909 122 37V114C122 116.209 120.209 118 118 118H41C38.7909 118 37 116.209 37 114V37Z"/>
</mask>
<path d="M37 37C37 33.6863 39.6863 31 43 31H118C121.314 31 124 33.6863 124 37H120C120 35.8954 119.105 35 118 35H41C38.7909 35 37 35.8954 37 37ZM124 114C124 117.314 121.314 120 118 120H43C39.6863 120 37 117.314 37 114C37 115.105 38.7909 116 41 116H118C119.105 116 120 115.105 120 114H124ZM37 118V33V118ZM118 31C121.314 31 124 33.6863 124 37V114C124 117.314 121.314 120 118 120V116C119.105 116 120 115.105 120 114V37C120 35.8954 119.105 35 118 35V31Z" fill="white" mask="url(#path-6-inside-1_2_37)"/>
<path d="M41.2219 78.968C40.4752 78.968 39.8139 78.8293 39.2379 78.552C38.6619 78.2747 38.1392 77.9547 37.6699 77.592C37.2005 77.2293 36.7632 76.9093 36.3579 76.632C35.9525 76.3333 35.5365 76.184 35.1099 76.184C34.5339 76.184 34.0645 76.408 33.7019 76.856C33.3605 77.304 33.1685 77.912 33.1259 78.68H30.0219C30.0645 76.6533 30.5232 75.128 31.3979 74.104C32.2939 73.08 33.4352 72.568 34.8219 72.568C35.5685 72.568 36.2299 72.7173 36.8059 73.016C37.3819 73.2933 37.8939 73.6133 38.3419 73.976C38.8112 74.3173 39.2485 74.6373 39.6539 74.936C40.0592 75.2133 40.4752 75.352 40.9019 75.352C41.4992 75.352 41.9685 75.128 42.3099 74.68C42.6725 74.232 42.8645 73.624 42.8859 72.856H46.0219C45.9792 74.8613 45.5099 76.3867 44.6139 77.432C43.7392 78.456 42.6085 78.968 41.2219 78.968Z" fill="white"/>
<path d="M37 66C37 66.5523 37.4477 67 38 67C38.5523 67 39 66.5523 39 66H37ZM37 37L37 66H39L39 37H37Z" fill="white"/>
<path d="M39 85C39 84.4477 38.5523 84 38 84C37.4477 84 37 84.4477 37 85H39ZM39 114V85H37V114H39Z" fill="white"/>
<path d="M37 114H39V116H38.5L38 115.5L37.5 115L37 114.5V114Z" fill="white"/>
<path d="M39 35V37H37V36.5L37.5 36L38 35.5L38.5 35H39Z" fill="white"/>
<defs>
<linearGradient id="paint0_linear_2_37" x1="38" y1="10.5" x2="124" y2="137.5" gradientUnits="userSpaceOnUse">
<stop stop-color="#C1143A"/>
<stop offset="1" stop-color="#840E28"/>
</linearGradient>
</defs>
</svg>
