<svg width="132" height="105" viewBox="0 0 132 105" fill="none" xmlns="http://www.w3.org/2000/svg">
<g clip-path="url(#clip0_1_97)">
<path d="M35.0357 24.1346L19.3329 22.0416L22.5107 5.95203L39.3792 9.2822L35.0357 24.1346Z" fill="#2F2E41"/>
<path d="M19.941 93.7412V27.3656C19.941 26.1628 20.9198 25.1842 22.1229 25.1842H129.818C131.021 25.1842 132 26.1628 132 27.3656V93.7412C132 94.9441 131.021 95.9227 129.818 95.9227H22.1229C20.9198 95.9227 19.941 94.9441 19.941 93.7412ZM131.605 27.3656C131.605 26.3791 130.805 25.5794 129.818 25.5794H22.1229C21.1362 25.5794 20.3363 26.3791 20.3363 27.3656V93.7412C20.3363 94.7278 21.1362 95.5275 22.1229 95.5275H98.6721C116.86 95.5275 131.605 80.7861 131.605 62.6017V27.3656Z" fill="#3F3D56"/>
<path d="M121.096 35.1224L119.47 34.3521C120.137 35.2829 120.712 36.7367 121.019 37.8935C121.541 36.8159 122.381 35.4974 123.212 34.7098L121.493 35.152C122.552 29.9616 126.536 26.2354 131.099 26.2354L131.163 26.048C126.398 26.048 122.178 29.7225 121.096 35.1224Z" fill="#3F3D56"/>
<path d="M128.583 43.0309H118.305C117.87 43.0309 117.515 42.6763 117.515 42.2405C117.515 41.8047 117.87 41.4501 118.305 41.4501H128.583C129.018 41.4501 129.373 41.8047 129.373 42.2405C129.373 42.6763 129.018 43.0309 128.583 43.0309Z" fill="#3F3D56"/>
<path d="M98.0696 48.9672V69.9122C98.0696 71.7644 96.5624 73.2713 94.7098 73.2713H73.7605C71.9079 73.2713 70.4007 71.7644 70.4007 69.9122V48.9672C70.4007 47.115 71.9079 45.6082 73.7605 45.6082H94.7098C96.5624 45.6082 98.0696 47.115 98.0696 48.9672ZM93.4102 72.8761C95.7652 72.8761 97.6743 70.9674 97.6743 68.6128V59.3526C97.6743 51.98 91.6964 46.0033 84.3223 46.0033H73.7605C72.1232 46.0033 70.796 47.3303 70.796 48.9672V66.9899C70.796 70.2407 73.4319 72.8761 76.6834 72.8761H93.4102Z" fill="#3F3D56"/>
<path d="M87.0238 54.1624H80.2607C80.0902 54.1624 79.9514 54.0237 79.9514 53.8532C79.9514 53.6828 80.0902 53.5441 80.2607 53.5441H87.0238C87.1943 53.5441 87.333 53.6828 87.333 53.8532C87.333 54.0237 87.1943 54.1624 87.0238 54.1624Z" fill="#3F3D56"/>
<path d="M87.0238 60.7549H80.2607C80.0902 60.7549 79.9514 60.6161 79.9514 60.4457C79.9514 60.2752 80.0902 60.1366 80.2607 60.1366H87.0238C87.1943 60.1366 87.333 60.2752 87.333 60.4457C87.333 60.6161 87.1943 60.7549 87.0238 60.7549Z" fill="#3F3D56"/>
<path d="M83.664 69.8442H76.9009C76.7304 69.8442 76.5916 69.7055 76.5916 69.535C76.5916 69.3645 76.7304 69.2259 76.9009 69.2259H83.664C83.8345 69.2259 83.9732 69.3645 83.9732 69.535C83.9732 69.7055 83.8345 69.8442 83.664 69.8442Z" fill="#3F3D56"/>
<path d="M90.653 57.4608H76.6314C76.4609 57.4608 76.3222 57.3221 76.3222 57.1516C76.3222 56.9812 76.4609 56.8425 76.6314 56.8425H90.653C90.8235 56.8425 90.9622 56.9812 90.9622 57.1516C90.9622 57.3221 90.8235 57.4608 90.653 57.4608Z" fill="#3F3D56"/>
<path d="M36.2897 59.7958H13.1121C15.0548 55.4617 16.2491 51.334 14.382 48.0507L36.2897 46.7809C35.1949 51.2132 35.0611 55.563 36.2897 59.7958Z" fill="#FFB6B6"/>
<path d="M44.2722 95.9227H27.2329C27.1096 95.9227 26.9972 95.8523 26.9434 95.7414L26.8397 95.5275L24.5753 90.8805C24.4295 90.5813 23.9809 90.6735 23.9648 91.0059L23.7467 95.5275L23.7422 95.6171C23.7336 95.7883 23.5923 95.9227 23.4209 95.9227H6.64441C6.47489 95.9227 6.33436 95.7909 6.32324 95.6218C6.32116 95.5902 6.31915 95.5588 6.31725 95.5275C5.24607 78.9988 9.09798 67.7952 11.3569 62.7823L11.3589 62.7803C12.2463 60.8083 12.8906 59.7947 12.8906 59.7947L13.1139 59.7927H13.1159L17.6279 59.7137H17.6299L21.6261 59.6465L24.6459 59.5971L25.8574 59.5753H25.8594L26.6183 59.5635L30.3912 59.4983L33.7608 59.441L36.1799 59.4015H36.2471L36.6068 60.9526V60.9545L36.6206 61.0237V61.0257L36.6819 61.2806L36.6839 61.2885L36.8064 61.824V61.8279L36.8143 61.8575V61.8595L36.8439 61.988L36.8459 61.9939L37.1305 63.2249L37.591 65.2265L38.1977 67.8446L38.9626 71.1682L39.35 72.8418L39.8816 75.1477L44.5853 95.5275C44.6327 95.7294 44.4795 95.9227 44.2722 95.9227Z" fill="#2F2E41"/>
<path d="M32.9434 21.1986L23.7196 20.8768L20.0736 25.765L18.1552 26.1815C15.2793 26.8059 13.3066 29.4577 13.5357 32.391L14.4072 52.713L14.8025 55.0841L36.5423 58.6408L41.4306 27.8858L34.9984 25.5754L32.9434 21.1986Z" fill="#6C63FF"/>
<path d="M29.5774 20.4278C34.15 20.4278 37.8568 16.7217 37.8568 12.15C37.8568 7.57838 34.15 3.87231 29.5774 3.87231C25.0048 3.87231 21.2979 7.57838 21.2979 12.15C21.2979 16.7217 25.0048 20.4278 29.5774 20.4278Z" fill="#FFB6B6"/>
<path d="M121.78 95.1542L114.602 92.4872C113.525 92.0872 112.975 90.8861 113.375 89.8097L120.427 70.8387C120.827 69.7624 122.028 69.2121 123.105 69.6121L130.283 72.2791C131.359 72.6791 131.909 73.8802 131.509 74.9566C128.811 82.6244 125.868 91.2402 124.458 93.9275C124.058 95.0039 122.856 95.5542 121.78 95.1542Z" fill="#3F3D56"/>
<path d="M129.741 80.0199C129.696 80.0029 129.645 80.0262 129.628 80.0718L128.646 82.7144C128.629 82.7599 128.652 82.8107 128.698 82.8276C128.743 82.8446 128.794 82.8213 128.811 82.7757L129.793 80.1331C129.81 80.0876 129.787 80.0368 129.741 80.0199Z" fill="#3F3D56"/>
<path d="M131.324 74.8876L124.272 93.8582C123.924 94.7951 122.909 95.2904 121.965 95.0072L121.965 95.0071C121.951 95.0028 121.937 94.9986 121.923 94.9938C121.898 94.986 121.873 94.9773 121.849 94.9681C121.849 94.9681 121.76 94.9278 121.599 94.8537C121.436 94.779 121.198 94.6697 120.903 94.5323C120.814 94.4914 120.721 94.4478 120.623 94.4017C120.426 94.31 120.211 94.2093 119.98 94.1001C119.888 94.057 119.793 94.0118 119.696 93.9658C119.2 93.7311 118.644 93.466 118.06 93.1823C117.961 93.1347 117.862 93.0864 117.762 93.0374C117.735 93.0244 113.479 90.0997 113.561 89.8784L120.612 70.9078C120.975 69.9321 122.06 69.4352 123.036 69.7978L124.091 70.1898C124.259 70.2524 124.346 70.434 124.298 70.6074C124.295 70.619 124.292 70.6306 124.29 70.6426C124.258 70.8228 124.369 70.998 124.541 71.0618L128.248 72.4394C128.42 72.5032 128.619 72.4431 128.712 72.2856C128.718 72.2752 128.723 72.2645 128.729 72.2538C128.806 72.0911 128.99 72.0102 129.159 72.0728L130.213 72.4647C131.189 72.8273 131.686 73.9119 131.324 74.8876Z" fill="#FFF2D7"/>
<path d="M119.254 73.8675C119.208 73.8506 119.157 73.8739 119.141 73.9194L118.895 74.5801C118.878 74.6256 118.901 74.6764 118.947 74.6933C118.992 74.7103 119.043 74.687 119.06 74.6414L119.306 73.9808C119.323 73.9352 119.299 73.8845 119.254 73.8675Z" fill="#3F3D56"/>
<path d="M118.517 75.8495C118.471 75.8325 118.421 75.8558 118.404 75.9014L117.928 77.1814C117.911 77.2269 117.934 77.2777 117.98 77.2946C118.025 77.3116 118.076 77.2883 118.093 77.2428L118.569 75.9627C118.586 75.9172 118.563 75.8664 118.517 75.8495Z" fill="#3F3D56"/>
<path d="M117.842 77.6663C117.796 77.6493 117.745 77.6726 117.728 77.7182L117.253 78.9982C117.236 79.0437 117.259 79.0945 117.305 79.1114C117.35 79.1284 117.401 79.1051 117.418 79.0595L117.894 77.7795C117.911 77.734 117.887 77.6832 117.842 77.6663Z" fill="#3F3D56"/>
<path d="M123.954 70.4681L122.375 69.8815C122.366 69.8782 122.357 69.8827 122.353 69.8915L122.288 70.0661C122.285 70.0749 122.29 70.0847 122.298 70.088L123.877 70.6746C123.886 70.6778 123.896 70.6734 123.899 70.6645L123.964 70.49C123.967 70.4812 123.963 70.4714 123.954 70.4681Z" fill="#E6E6E6"/>
<path d="M129.297 72.6764C129.394 72.6764 129.473 72.5975 129.473 72.5002C129.473 72.4029 129.394 72.324 129.297 72.324C129.199 72.324 129.12 72.4029 129.12 72.5002C129.12 72.5975 129.199 72.6764 129.297 72.6764Z" fill="#E6E6E6"/>
<path d="M129.751 72.8452C129.848 72.8452 129.927 72.7663 129.927 72.669C129.927 72.5717 129.848 72.4928 129.751 72.4928C129.654 72.4928 129.575 72.5717 129.575 72.669C129.575 72.7663 129.654 72.8452 129.751 72.8452Z" fill="#E6E6E6"/>
<path d="M130.205 73.014C130.303 73.014 130.382 72.9351 130.382 72.8378C130.382 72.7405 130.303 72.6616 130.205 72.6616C130.108 72.6616 130.029 72.7405 130.029 72.8378C130.029 72.9351 130.108 73.014 130.205 73.014Z" fill="#E6E6E6"/>
<path d="M104.181 35.2495H97.9824C97.1848 35.2495 96.536 34.6007 96.536 33.8033C96.2243 31.2304 96.1384 28.8341 96.536 26.816C96.536 26.0185 97.1848 25.3698 97.9824 25.3698H104.181C104.978 25.3698 105.627 26.0185 105.627 26.816V33.8033C105.627 34.6007 104.978 35.2495 104.181 35.2495ZM97.9824 25.5674C97.2938 25.5674 96.7336 26.1275 96.7336 26.816V33.8033C96.7336 34.4918 97.2938 35.0519 97.9824 35.0519H104.181C104.869 35.0519 105.43 34.4918 105.43 33.8033V26.816C105.43 26.1275 104.869 25.5674 104.181 25.5674H97.9824Z" fill="#3F3D56"/>
<path d="M103.554 29.618H98.4473C98.2307 29.618 98.0544 29.4418 98.0544 29.2253C98.0544 29.0087 98.2307 28.8325 98.4473 28.8325H103.554C103.771 28.8325 103.947 29.0087 103.947 29.2253C103.947 29.4418 103.771 29.618 103.554 29.618Z" fill="#3F3D56"/>
<path d="M103.554 31.7916H98.4473C98.2307 31.7916 98.0544 31.6154 98.0544 31.3988C98.0544 31.1822 98.2307 31.006 98.4473 31.006H103.554C103.771 31.006 103.947 31.1822 103.947 31.3988C103.947 31.6154 103.771 31.7916 103.554 31.7916Z" fill="#3F3D56"/>
<path d="M103.554 27.4445H98.4473C98.2307 27.4445 98.0544 27.2683 98.0544 27.0517C98.0544 26.8352 98.2307 26.659 98.4473 26.659H103.554C103.771 26.659 103.947 26.8352 103.947 27.0517C103.947 27.2683 103.771 27.4445 103.554 27.4445Z" fill="#3F3D56"/>
<path d="M26.7622 23.0048C27.2159 23.8599 27.8251 24.5416 28.4711 24.9827L32.2783 33.4014L36.2321 31.473L31.9444 23.1406C31.9414 22.3586 31.7185 21.472 31.2648 20.6169C30.2284 18.6634 28.3803 17.6144 27.1369 18.2739C25.8936 18.9333 25.7258 21.0514 26.7622 23.0048Z" fill="#FFB6B6"/>
<path d="M35.3351 28.3112C35.3351 28.3112 41.1339 25.2731 42.9331 28.4631C44.4683 31.1849 45.5775 44.8043 45.87 48.7441C45.9214 49.4356 45.7409 50.1224 45.3569 50.6998C44.2197 52.41 41.7682 52.573 40.4145 51.0285L28.664 27.8969L34.2377 25.2485L35.6009 28.5493L35.3351 28.3112Z" fill="#6C63FF"/>
<path d="M47.7328 60.8987C47.8601 60.7184 47.9351 60.4985 47.9351 60.261V39.9891C47.9351 39.3773 47.4391 38.8814 46.8273 38.8814H16.178C15.5661 38.8814 15.0701 39.3773 15.0701 39.9891V60.261C15.0701 60.4985 15.1452 60.7184 15.2725 60.8987H11.4446V61.9614C24.7534 62.7056 38.1254 62.7056 51.5607 61.9614V60.8987H47.7328Z" fill="#3F3D56"/>
<path d="M80.6621 105H74.4639C73.6663 105 73.0174 104.351 73.0174 103.554V96.5665C73.0174 95.7691 73.6663 95.1203 74.4639 95.1203H80.6621C81.4597 95.1203 82.1086 95.7691 82.1086 96.5665V103.554C82.1086 104.351 81.4597 105 80.6621 105Z" fill="white"/>
<path d="M80.6622 105H74.4639C73.6663 105 73.0174 104.351 73.0174 103.554C72.7057 100.981 72.6199 98.5847 73.0174 96.5665C73.0174 95.7691 73.6663 95.1204 74.4639 95.1204H80.6622C81.4597 95.1204 82.1086 95.7691 82.1086 96.5665V103.554C82.1086 104.351 81.4597 105 80.6622 105ZM74.4639 95.3179C73.7752 95.3179 73.215 95.878 73.215 96.5665V103.554C73.215 104.242 73.7752 104.802 74.4639 104.802H80.6622C81.3508 104.802 81.911 104.242 81.911 103.554V96.5665C81.911 95.878 81.3508 95.3179 80.6622 95.3179H74.4639Z" fill="#3F3D56"/>
<path d="M80.0359 99.3686H74.9287C74.7121 99.3686 74.5359 99.1924 74.5359 98.9758C74.5359 98.7592 74.7121 98.583 74.9287 98.583H80.0359C80.2525 98.583 80.4287 98.7592 80.4287 98.9758C80.4287 99.1924 80.2525 99.3686 80.0359 99.3686Z" fill="#6C63FF"/>
<path d="M80.0359 101.542H74.9287C74.7121 101.542 74.5359 101.366 74.5359 101.149C74.5359 100.933 74.7121 100.757 74.9287 100.757H80.0359C80.2525 100.757 80.4287 100.933 80.4287 101.149C80.4287 101.366 80.2525 101.542 80.0359 101.542Z" fill="#6C63FF"/>
<path d="M80.0359 97.1951H74.9287C74.7121 97.1951 74.5359 97.0189 74.5359 96.8023C74.5359 96.5857 74.7121 96.4095 74.9287 96.4095H80.0359C80.2525 96.4095 80.4287 96.5857 80.4287 96.8023C80.4287 97.0189 80.2525 97.1951 80.0359 97.1951Z" fill="#6C63FF"/>
<path d="M26.5895 58.2167C25.6214 58.2218 24.7347 58.4451 24.0442 58.8126L14.8184 58.2789L14.6929 62.6754L24.065 62.7434C24.7593 63.1036 25.6484 63.3175 26.6165 63.3124C28.8282 63.3007 30.615 62.1505 30.6076 60.7433C30.6001 59.3362 28.8012 58.205 26.5895 58.2167Z" fill="#FFB6B6"/>
<path d="M17.7257 26.1966C17.7257 26.1966 9.88308 25.3229 7.88528 30.1873C6.35917 33.9032 2.3944 48.3857 0.169554 56.6773C-0.64386 59.7087 1.56749 62.7103 4.70432 62.8345L18.5576 63.383L19.3588 57.2558L9.46636 55.6769L15.0001 39.079L17.7257 26.1966Z" fill="#6C63FF"/>
<path d="M37.859 5.75954C38.2571 3.74369 35.8136 2.96075 33.9837 2.0254L32.4301 0.711645C30.8013 -0.12089 28.8969 -0.227946 27.185 0.4168L21.8426 2.19477C19.4177 3.1081 18.5715 5.28224 17.1741 7.46404L14.8318 10.5904C13.4562 12.7382 13.8675 16.0914 14.19 18.6213L14.3252 19.6815L13.0383 22.7583L22.9288 24.5237L24.9223 19.7754L23.6783 17.5185C23.2369 16.7178 23.4135 15.7177 24.1025 15.1165C26.581 12.9539 27.0559 9.24239 27.0559 9.24239L29.1511 11.0897C30.6738 11.6609 32.0795 11.9554 33.3701 11.9778C34.7895 12.0024 36.0696 11.6978 37.2131 11.0701L37.4143 14.1309C36.8233 17.7494 35.9412 18.545 31.9668 21.3132L36.7502 26.0819L36.9744 24.14C37.5077 19.5206 39.8116 16.3056 40.4354 12.589C40.8667 10.0191 39.871 7.41603 37.859 5.75954Z" fill="#2F2E41"/>
</g>
<defs>
<clipPath id="clip0_1_97">
<rect width="132" height="105" fill="white"/>
</clipPath>
</defs>
</svg>
